<?xml version="1.0" encoding="utf-8"?>
<!-- Svg Vector Icons : http://www.onlinewebfonts.com/icon -->
<!DOCTYPE svg PUBLIC "-//W3C//DTD SVG 1.1//EN" "http://www.w3.org/Graphics/SVG/1.1/DTD/svg11.dtd">
<svg version="1.1" xmlns="http://www.w3.org/2000/svg" xmlns:xlink="http://www.w3.org/1999/xlink" x="0px" y="0px" viewBox="0 0 1000 1000" enable-background="new 0 0 1000 1000" xml:space="preserve">
<metadata> Svg Vector Icons : http://www.onlinewebfonts.com/icon </metadata>
<g><path d="M417.8,561.6c-8-19.3-18.2-35.7-31.5-49.7c-12.9-14-28.3-25.9-45.1-36.4c-16.8-10.5-33.6-19.3-51.1-27.3c-17.5-7.7-35-15.1-51.8-22.4c-16.8-6.6-32.2-14-45.1-22.4c-13.3-8-24.1-17.9-31.5-28c-8-10.5-11.5-22.4-11.5-37.1c0-10.5,1.4-20.3,5.2-29.8c2.8-9.1,8.1-17.1,15.1-24.5c7.4-6.6,16.1-11.9,26.3-15.8c10.1-3.5,22-5.9,36.4-5.9c17.8,0,33.6,3.1,49,7.7c14.7,4.9,27.7,10.1,39.6,16.1c10.9,6,20.3,11.9,28.3,16.4c7.4,5.3,13,7.4,16.8,7.4c3.5,0,6.6-0.7,8.7-2.1c1.4-1.4,2.8-4.5,4.2-9.1c1.4-4.2,2.4-9.4,3.1-15.4c0-6,0.7-14,0.7-23.1c0-7.4-0.7-14-0.7-20c0-5.2-0.7-9.8-1.7-13.3c-1.4-3.2-2.1-6-3.5-8.4l-6.7-8.7c-2.8-3.9-10.1-8.1-20.3-13.3s-22-10.5-35-15.1c-13.3-4.2-27.6-7.3-43-10.1c-15.4-2.4-30.5-3.9-45.9-3.9c-30.1,0-58.5,4.6-84.7,11.9c-26.3,7.3-49.7,19.3-68.6,33.9c-19.6,15.8-35,35-46.6,58.1C15.3,295.3,10,321.9,10,352.3c0,27.3,3.5,50.4,12.3,69.7c8,19.3,18.6,35.7,31.5,49.7c13.3,14.3,27.6,26.3,44.5,36.4c16.8,10.5,34.3,19.3,51.8,26.9c17.5,8.1,34.3,15.4,51.1,22.8c16.8,7.7,31.1,15,44.5,22.4c12.9,8,23.5,17.8,32.2,28.3c8.1,10.1,12.3,22.8,12.3,37.1c0,14.7-2.8,27.3-7.4,38.5c-4.2,11.9-10.9,21.4-19.6,29c-8.7,8-18.9,14-31.5,18.6c-12.3,4.2-26.3,6-42,6c-24.2,0-45.5-2.5-63-7.7c-18.2-4.2-33.3-10.2-46.6-16.1c-12.9-6-24.1-11.2-32.2-16.5c-8.7-4.5-14.3-7.3-18.9-7.3c-3.5,0-6.6,1.4-8.8,2.8c-2.8,1.7-4.2,4.5-5.6,8.4c-1.8,4.2-3.1,9.5-3.9,15.4c-0.7,6.7-0.7,15.1-0.7,24.5c0,14,0.7,25.2,2.1,32.5c1.4,7.7,5.3,13.7,9.4,17.1c4.6,3.9,11.2,8.4,21.4,12.6c9.4,4.5,21.7,9.1,36.4,13.3c14.7,4.5,31.2,8.4,50.4,11.2c18.9,3.2,39.9,4.5,61.9,4.5c32.9,0,63.4-3.9,92.4-12.6c29.4-8.7,54.2-21.7,75.9-38.5c21-17.1,37.8-38.8,51.1-64c12.2-25.2,18.9-55,18.9-88.9C430,603.3,425.8,580.8,417.8,561.6z"/><path d="M791.9,467.1c-16.1,3.1-43.4-0.4-65.1-0.4h-63.4V295.6H723c14.7,0,29.4,1.8,43,3.1c13.3,2.1,62.3,0.7,71,16.5c8.4,16.5,13,36.4,13,60.2c0,18.5-1,59.1-6,73.9C844,449.3,808.7,464,791.9,467.1z M978.5,294.6c-8-21.7-18.9-40.3-33.6-56.7c-14.7-15.4-32.9-28.7-53.2-39.2c-21.4-10.5-41.6-17.9-61.9-21.4c-20.7-3.9-38.2-6-52.5-7.7c-14.7-1.4-30.1-2.1-46.2-2.1H570c-14.7,0-25.5,4.6-34.3,11.9c-3.8,3.5,2.5,153.3,2.8,297.9c0.7,174.3-3.8,349.3-0.7,350c5.3,1.4,12.6,3.2,21.3,3.9c8.8,1.4,20.3,1.4,34.3,1.4c13,0,24.8,0,33.6-1.4c8.4-0.7,15.8-2.5,21.7-3.9c5.3-1.4,8.8-4.5,10.9-7.4c2.1-3.1,3.8-6,3.8-9.8V594.9h56.7c44.5,0,83.3-4.2,116.9-14.7c32.6-10.5,60.2-25.2,83-44.5c22.7-19.3,40.3-43,51.8-71.4c11.5-28,18.2-60.9,18.2-98C990,339.7,985.8,315.9,978.5,294.6z"/></g>
</svg>